<!-- icon666.com - MILLIONS OF FREE VECTOR ICONS --><svg version="1.1" id="Capa_1" xmlns="http://www.w3.org/2000/svg" xmlns:xlink="http://www.w3.org/1999/xlink" x="0px" y="0px" viewBox="0 0 512 512" style="enable-background:new 0 0 512 512;" xml:space="preserve"><path style="fill:#303C42;" d="M245.333,448c-2.313,0-4.625-0.75-6.521-2.229L4.146,264.432C1.521,262.411,0,259.296,0,255.994 c0-3.302,1.521-6.417,4.146-8.438L238.813,66.217c3.208-2.5,7.583-2.896,11.229-1.135c3.646,1.792,5.958,5.5,5.958,9.573v96.012 h245.333c5.896,0,10.667,4.762,10.667,10.658v149.338c0,5.896-4.771,10.667-10.667,10.667H256v96.003 c0,4.073-2.313,7.781-5.958,9.573C248.542,447.635,246.938,448,245.333,448z"></path><path style="fill:#1E88E5;" d="M28.104,256l206.563,159.615v-84.948c0-5.896,4.771-10.667,10.667-10.667h245.333V192H245.333 c-5.896,0-10.667-4.771-10.667-10.667V96.385L28.104,256z"></path><linearGradient id="SVGID_1_" gradientUnits="userSpaceOnUse" x1="-44.578" y1="639.1534" x2="-23.4383" y2="629.2965" gradientTransform="matrix(21.3333 0 0 -21.3333 996.3334 13791.667)"><stop offset="0" style="stop-color:#FFFFFF;stop-opacity:0.2"></stop><stop offset="1" style="stop-color:#FFFFFF;stop-opacity:0"></stop></linearGradient><path style="fill:url(#SVGID_1_);" d="M245.333,448c-2.313,0-4.625-0.75-6.521-2.229L4.146,264.432 C1.521,262.411,0,259.296,0,255.994c0-3.302,1.521-6.417,4.146-8.438L238.813,66.217c3.208-2.5,7.583-2.896,11.229-1.135 c3.646,1.792,5.958,5.5,5.958,9.573v96.012h245.333c5.896,0,10.667,4.762,10.667,10.658v149.338c0,5.896-4.771,10.667-10.667,10.667 H256v96.003c0,4.073-2.313,7.781-5.958,9.573C248.542,447.635,246.938,448,245.333,448z"></path></svg>