<!-- icon666.com - MILLIONS OF FREE VECTOR ICONS --><svg viewBox="0 0 512 512" xmlns="http://www.w3.org/2000/svg"><g id="right-arrow"><g id="close"><circle id="Circle" cx="256" cy="256" fill="#2e3192" r="256"></circle><path d="m296.72 256 75.7 75.7a28.78 28.78 0 0 1 0 40.72 28.78 28.78 0 0 1 -40.72 0l-75.7-75.69-75.7 75.69a28.78 28.78 0 0 1 -40.72 0 28.78 28.78 0 0 1 0-40.72l75.7-75.7-75.7-75.7a28.78 28.78 0 0 1 0-40.72 28.78 28.78 0 0 1 40.72 0l75.7 75.7 75.7-75.7a28.78 28.78 0 0 1 40.72 0 28.78 28.78 0 0 1 0 40.72z" fill="#fff"></path></g></g></svg>