<!-- icon666.com - MILLIONS OF FREE VECTOR ICONS --><svg id="Capa_1" enable-background="new 0 0 292.571 292.571" viewBox="0 0 292.571 292.571" xmlns="http://www.w3.org/2000/svg"><g><g id="XMLID_2954_"><g id="XMLID_2953_"><g id="XMLID_2952_"><path id="XMLID_2030_" d="m15.287 12.581h148.37v256h-148.37z" fill="#f7f7f7"></path><g id="XMLID_2924_"><g id="XMLID_2923_"><path id="XMLID_2922_" d="m32.073 28.709h114.761v23.662h-114.761z" fill="#57b5e6"></path><path id="XMLID_2935_" d="m32.073 28.709h114.761v5.157h-114.761z" fill="#3da3db"></path></g><g id="XMLID_2925_"><path id="XMLID_2928_" d="m32.073 62.062h114.761v23.662h-114.761z" fill="#57b5e6"></path><path id="XMLID_2926_" d="m32.073 62.062h114.761v5.157h-114.761z" fill="#3da3db"></path></g><g id="XMLID_2931_"><path id="XMLID_2934_" d="m32.073 95.378h114.761v23.662h-114.761z" fill="#57b5e6"></path><path id="XMLID_2933_" d="m32.073 95.415h114.761v5.157h-114.761z" fill="#3da3db"></path></g><g id="XMLID_2936_"><path id="XMLID_2938_" d="m32.073 128.731h114.761v23.662h-114.761z" fill="#57b5e6"></path><path id="XMLID_2937_" d="m32.073 128.731h114.761v5.157h-114.761z" fill="#3da3db"></path></g><g id="XMLID_2939_"><path id="XMLID_2941_" d="m32.073 162.085h114.761v23.662h-114.761z" fill="#57b5e6"></path><path id="XMLID_2940_" d="m32.073 162.085h114.761v5.157h-114.761z" fill="#3da3db"></path></g><g id="XMLID_2942_"><path id="XMLID_2944_" d="m32.073 195.438h114.761v23.662h-114.761z" fill="#57b5e6"></path><path id="XMLID_2943_" d="m32.073 195.438h114.761v5.157h-114.761z" fill="#3da3db"></path></g><g id="XMLID_2945_"><path id="XMLID_2947_" d="m32.073 228.791h114.761v23.662h-114.761z" fill="#57b5e6"></path><path id="XMLID_2946_" d="m32.073 228.791h114.761v5.157h-114.761z" fill="#3da3db"></path></g></g><path id="XMLID_2971_" d="m163.657 76.946h113.664v191.634h-113.664z" fill="#f7f7f7"></path><path id="XMLID_2980_" d="m163.657 76.946h7.753v191.634h-7.753z" fill="#e5e5e5"></path><g id="XMLID_2949_"><g id="XMLID_2962_"><path id="XMLID_2964_" d="m176.53 95.378h87.918v23.662h-87.918z" fill="#57b5e6"></path><path id="XMLID_2963_" d="m176.53 95.415h87.918v5.157h-87.918z" fill="#3da3db"></path></g><g id="XMLID_2959_"><path id="XMLID_2961_" d="m176.53 128.731h87.918v23.662h-87.918z" fill="#57b5e6"></path><path id="XMLID_2960_" d="m176.53 128.731h87.918v5.157h-87.918z" fill="#3da3db"></path></g></g><path id="XMLID_2948_" d="m192.658 173.934h55.625v94.647h-55.625z" fill="#f7c680"></path><path id="XMLID_2950_" d="m218.587 173.934h3.803v94.647h-3.803z" fill="#f6b460"></path><path id="XMLID_2977_" d="m187.063 173.934h66.816v10.971h-66.816z" fill="#e5e5e5"></path></g><path id="XMLID_2951_" d="m0 268.581h292.571v11.41h-292.571z" fill="#626c78"></path></g><g id="XMLID_2965_"><path id="XMLID_2967_" d="m267.52 69.669c0 26.002-47.067 79.141-47.067 79.141s-47.031-53.138-47.031-79.141 21.065-47.067 47.067-47.067 47.031 21.101 47.031 47.067z" fill="#ee4659"></path><circle id="XMLID_2966_" cx="220.489" cy="69.669" fill="#f7f7f7" r="29.769"></circle></g></g></g></svg>